<mxfile host="app.diagrams.net" modified="2022-11-13T14:20:53.008Z" agent="5.0 (Windows NT 10.0; Win64; x64) AppleWebKit/537.36 (KHTML, like Gecko) Chrome/107.0.0.0 Safari/537.36 Edg/107.0.1418.42" etag="0fSNdix0n_AD4hqy3gWT" version="20.5.3" type="github">
  <diagram id="OCgsaDfr58Ob6co63XAB" name="第 1 页">
    <mxGraphModel dx="1422" dy="754" grid="1" gridSize="10" guides="1" tooltips="1" connect="1" arrows="1" fold="1" page="1" pageScale="1" pageWidth="827" pageHeight="1169" math="0" shadow="0">
      <root>
        <mxCell id="0" />
        <mxCell id="1" parent="0" />
        <mxCell id="U4EY4mMdTLBNbBclIab2-33" value="" style="edgeStyle=orthogonalEdgeStyle;shape=flexArrow;rounded=1;orthogonalLoop=1;jettySize=auto;html=1;strokeColor=default;strokeWidth=1;fontFamily=Helvetica;fontSize=19;sourcePerimeterSpacing=5;targetPerimeterSpacing=5;fillColor=none;elbow=vertical;" parent="1" source="U4EY4mMdTLBNbBclIab2-1" target="U4EY4mMdTLBNbBclIab2-32" edge="1">
          <mxGeometry relative="1" as="geometry" />
        </mxCell>
        <mxCell id="U4EY4mMdTLBNbBclIab2-1" value="&lt;b&gt;&lt;font style=&quot;font-size: 19px;&quot;&gt;数据预处理&lt;/font&gt;&lt;/b&gt;" style="rounded=1;whiteSpace=wrap;html=1;strokeColor=#6c8ebf;fillColor=#dae8fc;" parent="1" vertex="1">
          <mxGeometry x="350" y="30" width="160" height="40" as="geometry" />
        </mxCell>
        <mxCell id="U4EY4mMdTLBNbBclIab2-21" value="" style="shape=flexArrow;rounded=1;orthogonalLoop=1;jettySize=auto;html=1;strokeColor=default;strokeWidth=1;fontFamily=Helvetica;fontSize=19;sourcePerimeterSpacing=5;targetPerimeterSpacing=5;fillColor=none;elbow=vertical;" parent="1" source="U4EY4mMdTLBNbBclIab2-2" target="U4EY4mMdTLBNbBclIab2-20" edge="1">
          <mxGeometry relative="1" as="geometry" />
        </mxCell>
        <mxCell id="U4EY4mMdTLBNbBclIab2-25" value="" style="shape=flexArrow;rounded=1;orthogonalLoop=1;jettySize=auto;html=1;strokeColor=default;strokeWidth=1;fontFamily=Helvetica;fontSize=19;sourcePerimeterSpacing=5;targetPerimeterSpacing=5;fillColor=none;" parent="1" source="U4EY4mMdTLBNbBclIab2-2" target="U4EY4mMdTLBNbBclIab2-22" edge="1">
          <mxGeometry relative="1" as="geometry" />
        </mxCell>
        <mxCell id="U4EY4mMdTLBNbBclIab2-2" value="&lt;b style=&quot;&quot;&gt;&lt;font style=&quot;font-size: 19px;&quot;&gt;角质细胞亚型分析&lt;/font&gt;&lt;br&gt;&lt;/b&gt;" style="rounded=1;whiteSpace=wrap;html=1;strokeColor=#6c8ebf;fillColor=#dae8fc;" parent="1" vertex="1">
          <mxGeometry x="350" y="270" width="160" height="40" as="geometry" />
        </mxCell>
        <mxCell id="U4EY4mMdTLBNbBclIab2-17" value="" style="edgeStyle=none;shape=flexArrow;rounded=1;orthogonalLoop=1;jettySize=auto;html=1;strokeColor=default;strokeWidth=1;fontFamily=Helvetica;fontSize=19;sourcePerimeterSpacing=5;targetPerimeterSpacing=5;fillColor=none;" parent="1" source="U4EY4mMdTLBNbBclIab2-13" target="U4EY4mMdTLBNbBclIab2-16" edge="1">
          <mxGeometry relative="1" as="geometry" />
        </mxCell>
        <mxCell id="U4EY4mMdTLBNbBclIab2-13" value="&lt;font style=&quot;font-size: 19px;&quot;&gt;&lt;b&gt;搭建角质细胞亚型与免疫细胞互作网络&lt;/b&gt;&lt;/font&gt;" style="whiteSpace=wrap;html=1;fillColor=#dae8fc;strokeColor=#6c8ebf;rounded=1;" parent="1" vertex="1">
          <mxGeometry x="257.5" y="650" width="360" height="60" as="geometry" />
        </mxCell>
        <mxCell id="U4EY4mMdTLBNbBclIab2-16" value="利用特征基因进行药物重定位" style="whiteSpace=wrap;html=1;fillColor=#dae8fc;strokeColor=#6c8ebf;rounded=1;fontStyle=1;fontSize=19;" parent="1" vertex="1">
          <mxGeometry x="257.5" y="790" width="360" height="60" as="geometry" />
        </mxCell>
        <mxCell id="k8sYvSLbESSTHXCQKieb-3" value="" style="rounded=0;orthogonalLoop=1;jettySize=auto;html=1;fontFamily=Helvetica;fontSize=19;shape=flexArrow;" edge="1" parent="1" source="U4EY4mMdTLBNbBclIab2-20" target="k8sYvSLbESSTHXCQKieb-1">
          <mxGeometry relative="1" as="geometry" />
        </mxCell>
        <mxCell id="U4EY4mMdTLBNbBclIab2-20" value="&lt;b&gt;&lt;font style=&quot;font-size: 19px;&quot;&gt;差异分析&lt;/font&gt;&lt;/b&gt;" style="whiteSpace=wrap;html=1;fillColor=#dae8fc;strokeColor=#6c8ebf;rounded=1;" parent="1" vertex="1">
          <mxGeometry x="250" y="390" width="120" height="40" as="geometry" />
        </mxCell>
        <mxCell id="k8sYvSLbESSTHXCQKieb-5" value="" style="edgeStyle=none;shape=flexArrow;rounded=0;orthogonalLoop=1;jettySize=auto;html=1;fontFamily=Helvetica;fontSize=19;" edge="1" parent="1" source="U4EY4mMdTLBNbBclIab2-22" target="k8sYvSLbESSTHXCQKieb-1">
          <mxGeometry relative="1" as="geometry" />
        </mxCell>
        <mxCell id="k8sYvSLbESSTHXCQKieb-6" value="" style="edgeStyle=none;shape=flexArrow;rounded=0;orthogonalLoop=1;jettySize=auto;html=1;fontFamily=Helvetica;fontSize=19;" edge="1" parent="1" source="U4EY4mMdTLBNbBclIab2-22" target="k8sYvSLbESSTHXCQKieb-1">
          <mxGeometry relative="1" as="geometry" />
        </mxCell>
        <mxCell id="k8sYvSLbESSTHXCQKieb-7" value="" style="edgeStyle=none;shape=flexArrow;rounded=0;orthogonalLoop=1;jettySize=auto;html=1;fontFamily=Helvetica;fontSize=19;" edge="1" parent="1" source="U4EY4mMdTLBNbBclIab2-22" target="k8sYvSLbESSTHXCQKieb-1">
          <mxGeometry relative="1" as="geometry" />
        </mxCell>
        <mxCell id="U4EY4mMdTLBNbBclIab2-22" value="&lt;b&gt;&lt;font style=&quot;font-size: 19px;&quot;&gt;拟时序分析&lt;/font&gt;&lt;/b&gt;" style="whiteSpace=wrap;html=1;fillColor=#dae8fc;strokeColor=#6c8ebf;rounded=1;" parent="1" vertex="1">
          <mxGeometry x="510" y="390" width="120" height="40" as="geometry" />
        </mxCell>
        <mxCell id="U4EY4mMdTLBNbBclIab2-34" value="" style="shape=flexArrow;rounded=1;orthogonalLoop=1;jettySize=auto;html=1;strokeColor=default;strokeWidth=1;fontFamily=Helvetica;fontSize=19;sourcePerimeterSpacing=5;targetPerimeterSpacing=5;fillColor=none;elbow=vertical;" parent="1" source="U4EY4mMdTLBNbBclIab2-32" target="U4EY4mMdTLBNbBclIab2-2" edge="1">
          <mxGeometry relative="1" as="geometry" />
        </mxCell>
        <mxCell id="U4EY4mMdTLBNbBclIab2-32" value="&lt;span style=&quot;font-size: 19px;&quot;&gt;&lt;b&gt;降维、细胞注释&lt;br&gt;提取角质细胞重新聚类&lt;br&gt;&lt;/b&gt;&lt;/span&gt;" style="rounded=1;whiteSpace=wrap;html=1;strokeColor=#6c8ebf;fillColor=#dae8fc;" parent="1" vertex="1">
          <mxGeometry x="290" y="140" width="280" height="70" as="geometry" />
        </mxCell>
        <mxCell id="k8sYvSLbESSTHXCQKieb-8" value="" style="edgeStyle=none;shape=flexArrow;rounded=0;orthogonalLoop=1;jettySize=auto;html=1;fontFamily=Helvetica;fontSize=19;" edge="1" parent="1" source="k8sYvSLbESSTHXCQKieb-1" target="U4EY4mMdTLBNbBclIab2-13">
          <mxGeometry relative="1" as="geometry" />
        </mxCell>
        <mxCell id="k8sYvSLbESSTHXCQKieb-1" value="&lt;font style=&quot;font-size: 19px;&quot;&gt;&lt;b&gt;基因表达趋势图&lt;br&gt;共表达热图&lt;br&gt;&lt;/b&gt;&lt;/font&gt;" style="whiteSpace=wrap;html=1;fillColor=#dae8fc;strokeColor=#6c8ebf;rounded=1;" vertex="1" parent="1">
          <mxGeometry x="350" y="510" width="175" height="70" as="geometry" />
        </mxCell>
      </root>
    </mxGraphModel>
  </diagram>
</mxfile>
